999
DXF file created by HALCON
  0
SECTION
  2
HEADER
  9
$ACADVER
  1
AC1009
  0
ENDSEC
  0
SECTION
  2
TABLES
  0
TABLE
  2
LTYPE
 70
1
  0
LTYPE
  2
CONTINUOUS
 70
0
  3
Solid line
 72
65
 73
0
 40
0
  0
ENDTAB
  0
TABLE
  2
LAYER
 70
1
  0
LAYER
  2
0
 70
0
 62
7
  6
CONTINUOUS
  0
ENDTAB
  0
TABLE
  2
APPID
 70
1
  0
APPID
  2
ACAD
 70
64
  0
ENDTAB
  0
ENDSEC
  0
SECTION
  2
BLOCKS
  0
ENDSEC
  0
SECTION
  2
ENTITIES
  0
POLYLINE
  8
0
 66
1
 10
0.0
 20
0.0
 30
0.0
 70
64
  0
VERTEX
  8
0
 10
0.05
 20
-0.03272655
 30
0.02977467
 70
192
  0
VERTEX
  8
0
 10
0.0275
 20
-0.05463798
 30
0.03488733
 70
192
  0
VERTEX
  8
0
 10
0.05
 20
-0.0765494
 30
0.04
 70
192
  0
VERTEX
  8
0
 10
0.0725
 20
-0.05463798
 30
0.03488733
 70
192
  0
VERTEX
  8
0
 10
0.05
 20
-0.01460762
 30
0.00840844
 70
192
  0
VERTEX
  8
0
 10
0.005
 20
-0.05843047
 30
0.01863378
 70
192
  0
VERTEX
  8
0
 10
0.05
 20
-0.10225333
 30
0.02885911
 70
192
  0
VERTEX
  8
0
 10
0.095
 20
-0.05843047
 30
0.01863378
 70
192
  0
VERTEX
  8
0
 10
0.0
 20
0.0
 30
0.005
 70
192
  0
VERTEX
  8
0
 10
0.0
 20
-0.15000001
 30
0.04
 70
192
  0
VERTEX
  8
0
 10
0.1
 20
-0.15000001
 30
0.04
 70
192
  0
VERTEX
  8
0
 10
0.1
 20
0.0
 30
0.005
 70
192
  0
VERTEX
  8
0
 10
0.0
 20
0.0
 30
0.0
 70
192
  0
VERTEX
  8
0
 10
0.0
 20
-0.15000001
 30
0.0
 70
192
  0
VERTEX
  8
0
 10
0.1
 20
-0.15000001
 30
0.0
 70
192
  0
VERTEX
  8
0
 10
0.1
 20
0.0
 30
0.0
 70
192
  0
VERTEX
  8
0
 10
0.08875
 20
-0.015
 30
0.0085
 70
192
  0
VERTEX
  8
0
 10
0.0887426
 20
-0.01476454
 30
0.00844506
 70
192
  0
VERTEX
  8
0
 10
0.08872043
 20
-0.01453
 30
0.00839033
 70
192
  0
VERTEX
  8
0
 10
0.08868358
 20
-0.01429732
 30
0.00833604
 70
192
  0
VERTEX
  8
0
 10
0.08863219
 20
-0.01406741
 30
0.0082824
 70
192
  0
VERTEX
  8
0
 10
0.08856646
 20
-0.01384119
 30
0.00822961
 70
192
  0
VERTEX
  8
0
 10
0.08848666
 20
-0.01361953
 30
0.00817789
 70
192
  0
VERTEX
  8
0
 10
0.08839311
 20
-0.01340333
 30
0.00812744
 70
192
  0
VERTEX
  8
0
 10
0.08828615
 20
-0.01319342
 30
0.00807847
 70
192
  0
VERTEX
  8
0
 10
0.08816623
 20
-0.01299065
 30
0.00803115
 70
192
  0
VERTEX
  8
0
 10
0.08803381
 20
-0.0127958
 30
0.00798569
 70
192
  0
VERTEX
  8
0
 10
0.08788943
 20
-0.01260966
 30
0.00794225
 70
192
  0
VERTEX
  8
0
 10
0.08773363
 20
-0.01243295
 30
0.00790102
 70
192
  0
VERTEX
  8
0
 10
0.08756705
 20
-0.01226637
 30
0.00786215
 70
192
  0
VERTEX
  8
0
 10
0.08739034
 20
-0.01211058
 30
0.0078258
 70
192
  0
VERTEX
  8
0
 10
0.0872042
 20
-0.01196619
 30
0.00779211
 70
192
  0
VERTEX
  8
0
 10
0.08700936
 20
-0.01183377
 30
0.00776121
 70
192
  0
VERTEX
  8
0
 10
0.08680658
 20
-0.01171385
 30
0.00773323
 70
192
  0
VERTEX
  8
0
 10
0.08659668
 20
-0.0116069
 30
0.00770828
 70
192
  0
VERTEX
  8
0
 10
0.08638047
 20
-0.01151334
 30
0.00768645
 70
192
  0
VERTEX
  8
0
 10
0.08615881
 20
-0.01143354
 30
0.00766783
 70
192
  0
VERTEX
  8
0
 10
0.08593259
 20
-0.01136781
 30
0.00765249
 70
192
  0
VERTEX
  8
0
 10
0.08570268
 20
-0.01131642
 30
0.0076405
 70
192
  0
VERTEX
  8
0
 10
0.08547
 20
-0.01127957
 30
0.0076319
 70
192
  0
VERTEX
  8
0
 10
0.08523547
 20
-0.0112574
 30
0.00762673
 70
192
  0
VERTEX
  8
0
 10
0.085
 20
-0.01125
 30
0.007625
 70
192
  0
VERTEX
  8
0
 10
0.08476453
 20
-0.0112574
 30
0.00762673
 70
192
  0
VERTEX
  8
0
 10
0.08453
 20
-0.01127957
 30
0.0076319
 70
192
  0
VERTEX
  8
0
 10
0.08429731
 20
-0.01131642
 30
0.0076405
 70
192
  0
VERTEX
  8
0
 10
0.08406741
 20
-0.01136781
 30
0.00765249
 70
192
  0
VERTEX
  8
0
 10
0.08384119
 20
-0.01143354
 30
0.00766783
 70
192
  0
VERTEX
  8
0
 10
0.08361953
 20
-0.01151334
 30
0.00768645
 70
192
  0
VERTEX
  8
0
 10
0.08340333
 20
-0.0116069
 30
0.00770828
 70
192
  0
VERTEX
  8
0
 10
0.08319342
 20
-0.01171385
 30
0.00773323
 70
192
  0
VERTEX
  8
0
 10
0.08299065
 20
-0.01183377
 30
0.00776121
 70
192
  0
VERTEX
  8
0
 10
0.08279581
 20
-0.01196619
 30
0.00779211
 70
192
  0
VERTEX
  8
0
 10
0.08260966
 20
-0.01211058
 30
0.0078258
 70
192
  0
VERTEX
  8
0
 10
0.08243295
 20
-0.01226637
 30
0.00786215
 70
192
  0
VERTEX
  8
0
 10
0.08226637
 20
-0.01243295
 30
0.00790102
 70
192
  0
VERTEX
  8
0
 10
0.08211058
 20
-0.01260966
 30
0.00794225
 70
192
  0
VERTEX
  8
0
 10
0.08196618
 20
-0.0127958
 30
0.00798569
 70
192
  0
VERTEX
  8
0
 10
0.08183377
 20
-0.01299065
 30
0.00803115
 70
192
  0
VERTEX
  8
0
 10
0.08171386
 20
-0.01319342
 30
0.00807847
 70
192
  0
VERTEX
  8
0
 10
0.08160689
 20
-0.01340333
 30
0.00812744
 70
192
  0
VERTEX
  8
0
 10
0.08151334
 20
-0.01361953
 30
0.00817789
 70
192
  0
VERTEX
  8
0
 10
0.08143354
 20
-0.01384119
 30
0.00822961
 70
192
  0
VERTEX
  8
0
 10
0.08136781
 20
-0.01406741
 30
0.0082824
 70
192
  0
VERTEX
  8
0
 10
0.08131642
 20
-0.01429732
 30
0.00833604
 70
192
  0
VERTEX
  8
0
 10
0.08127957
 20
-0.01453
 30
0.00839033
 70
192
  0
VERTEX
  8
0
 10
0.0812574
 20
-0.01476454
 30
0.00844506
 70
192
  0
VERTEX
  8
0
 10
0.08125
 20
-0.015
 30
0.0085
 70
192
  0
VERTEX
  8
0
 10
0.0812574
 20
-0.01523546
 30
0.00855494
 70
192
  0
VERTEX
  8
0
 10
0.08127957
 20
-0.01547
 30
0.00860967
 70
192
  0
VERTEX
  8
0
 10
0.08131642
 20
-0.01570268
 30
0.00866396
 70
192
  0
VERTEX
  8
0
 10
0.08136781
 20
-0.01593259
 30
0.0087176
 70
192
  0
VERTEX
  8
0
 10
0.08143354
 20
-0.01615881
 30
0.00877039
 70
192
  0
VERTEX
  8
0
 10
0.08151334
 20
-0.01638047
 30
0.00882211
 70
192
  0
VERTEX
  8
0
 10
0.08160689
 20
-0.01659667
 30
0.00887256
 70
192
  0
VERTEX
  8
0
 10
0.08171386
 20
-0.01680658
 30
0.00892153
 70
192
  0
VERTEX
  8
0
 10
0.08183377
 20
-0.01700935
 30
0.00896885
 70
192
  0
VERTEX
  8
0
 10
0.08196618
 20
-0.0172042
 30
0.00901431
 70
192
  0
VERTEX
  8
0
 10
0.08211058
 20
-0.01739034
 30
0.00905775
 70
192
  0
VERTEX
  8
0
 10
0.08226637
 20
-0.01756705
 30
0.00909898
 70
192
  0
VERTEX
  8
0
 10
0.08243295
 20
-0.01773363
 30
0.00913785
 70
192
  0
VERTEX
  8
0
 10
0.08260966
 20
-0.01788943
 30
0.0091742
 70
192
  0
VERTEX
  8
0
 10
0.08279581
 20
-0.01803381
 30
0.00920789
 70
192
  0
VERTEX
  8
0
 10
0.08299065
 20
-0.01816623
 30
0.00923879
 70
192
  0
VERTEX
  8
0
 10
0.08319342
 20
-0.01828615
 30
0.00926677
 70
192
  0
VERTEX
  8
0
 10
0.08340333
 20
-0.0183931
 30
0.00929172
 70
192
  0
VERTEX
  8
0
 10
0.08361953
 20
-0.01848666
 30
0.00931355
 70
192
  0
VERTEX
  8
0
 10
0.08384119
 20
-0.01856646
 30
0.00933217
 70
192
  0
VERTEX
  8
0
 10
0.08406741
 20
-0.01863219
 30
0.00934751
 70
192
  0
VERTEX
  8
0
 10
0.08429731
 20
-0.01868358
 30
0.0093595
 70
192
  0
VERTEX
  8
0
 10
0.08453
 20
-0.01872043
 30
0.0093681
 70
192
  0
VERTEX
  8
0
 10
0.08476453
 20
-0.0187426
 30
0.00937327
 70
192
  0
VERTEX
  8
0
 10
0.085
 20
-0.01875
 30
0.009375
 70
192
  0
VERTEX
  8
0
 10
0.08523547
 20
-0.0187426
 30
0.00937327
 70
192
  0
VERTEX
  8
0
 10
0.08547
 20
-0.01872043
 30
0.0093681
 70
192
  0
VERTEX
  8
0
 10
0.08570268
 20
-0.01868358
 30
0.0093595
 70
192
  0
VERTEX
  8
0
 10
0.08593259
 20
-0.01863219
 30
0.00934751
 70
192
  0
VERTEX
  8
0
 10
0.08615881
 20
-0.01856646
 30
0.00933217
 70
192
  0
VERTEX
  8
0
 10
0.08638047
 20
-0.01848666
 30
0.00931355
 70
192
  0
VERTEX
  8
0
 10
0.08659668
 20
-0.0183931
 30
0.00929172
 70
192
  0
VERTEX
  8
0
 10
0.08680658
 20
-0.01828615
 30
0.00926677
 70
192
  0
VERTEX
  8
0
 10
0.08700936
 20
-0.01816623
 30
0.00923879
 70
192
  0
VERTEX
  8
0
 10
0.0872042
 20
-0.01803381
 30
0.00920789
 70
192
  0
VERTEX
  8
0
 10
0.08739034
 20
-0.01788943
 30
0.0091742
 70
192
  0
VERTEX
  8
0
 10
0.08756705
 20
-0.01773363
 30
0.00913785
 70
192
  0
VERTEX
  8
0
 10
0.08773363
 20
-0.01756705
 30
0.00909898
 70
192
  0
VERTEX
  8
0
 10
0.08788943
 20
-0.01739034
 30
0.00905775
 70
192
  0
VERTEX
  8
0
 10
0.08803381
 20
-0.0172042
 30
0.00901431
 70
192
  0
VERTEX
  8
0
 10
0.08816623
 20
-0.01700935
 30
0.00896885
 70
192
  0
VERTEX
  8
0
 10
0.08828615
 20
-0.01680658
 30
0.00892153
 70
192
  0
VERTEX
  8
0
 10
0.08839311
 20
-0.01659667
 30
0.00887256
 70
192
  0
VERTEX
  8
0
 10
0.08848666
 20
-0.01638047
 30
0.00882211
 70
192
  0
VERTEX
  8
0
 10
0.08856646
 20
-0.01615881
 30
0.00877039
 70
192
  0
VERTEX
  8
0
 10
0.08863219
 20
-0.01593259
 30
0.0087176
 70
192
  0
VERTEX
  8
0
 10
0.08868358
 20
-0.01570268
 30
0.00866396
 70
192
  0
VERTEX
  8
0
 10
0.08872043
 20
-0.01547
 30
0.00860967
 70
192
  0
VERTEX
  8
0
 10
0.0887426
 20
-0.01523546
 30
0.00855494
 70
192
  0
VERTEX
  8
0
 10
0.08875
 20
-0.015
 30
0.0
 70
192
  0
VERTEX
  8
0
 10
0.0887426
 20
-0.01476454
 30
0.0
 70
192
  0
VERTEX
  8
0
 10
0.08872043
 20
-0.01453
 30
0.0
 70
192
  0
VERTEX
  8
0
 10
0.08868358
 20
-0.01429732
 30
0.0
 70
192
  0
VERTEX
  8
0
 10
0.08863219
 20
-0.01406741
 30
0.0
 70
192
  0
VERTEX
  8
0
 10
0.08856646
 20
-0.01384119
 30
0.0
 70
192
  0
VERTEX
  8
0
 10
0.08848666
 20
-0.01361953
 30
0.0
 70
192
  0
VERTEX
  8
0
 10
0.08839311
 20
-0.01340333
 30
0.0
 70
192
  0
VERTEX
  8
0
 10
0.08828615
 20
-0.01319342
 30
0.0
 70
192
  0
VERTEX
  8
0
 10
0.08816623
 20
-0.01299065
 30
0.0
 70
192
  0
VERTEX
  8
0
 10
0.08803381
 20
-0.0127958
 30
0.0
 70
192
  0
VERTEX
  8
0
 10
0.08788943
 20
-0.01260966
 30
0.0
 70
192
  0
VERTEX
  8
0
 10
0.08773363
 20
-0.01243295
 30
0.0
 70
192
  0
VERTEX
  8
0
 10
0.08756705
 20
-0.01226637
 30
0.0
 70
192
  0
VERTEX
  8
0
 10
0.08739034
 20
-0.01211058
 30
0.0
 70
192
  0
VERTEX
  8
0
 10
0.0872042
 20
-0.01196619
 30
0.0
 70
192
  0
VERTEX
  8
0
 10
0.08700936
 20
-0.01183377
 30
0.0
 70
192
  0
VERTEX
  8
0
 10
0.08680658
 20
-0.01171385
 30
0.0
 70
192
  0
VERTEX
  8
0
 10
0.08659668
 20
-0.0116069
 30
0.0
 70
192
  0
VERTEX
  8
0
 10
0.08638047
 20
-0.01151334
 30
0.0
 70
192
  0
VERTEX
  8
0
 10
0.08615881
 20
-0.01143354
 30
0.0
 70
192
  0
VERTEX
  8
0
 10
0.08593259
 20
-0.01136781
 30
0.0
 70
192
  0
VERTEX
  8
0
 10
0.08570268
 20
-0.01131642
 30
0.0
 70
192
  0
VERTEX
  8
0
 10
0.08547
 20
-0.01127957
 30
0.0
 70
192
  0
VERTEX
  8
0
 10
0.08523547
 20
-0.0112574
 30
0.0
 70
192
  0
VERTEX
  8
0
 10
0.085
 20
-0.01125
 30
0.0
 70
192
  0
VERTEX
  8
0
 10
0.08476453
 20
-0.0112574
 30
0.0
 70
192
  0
VERTEX
  8
0
 10
0.08453
 20
-0.01127957
 30
0.0
 70
192
  0
VERTEX
  8
0
 10
0.08429731
 20
-0.01131642
 30
0.0
 70
192
  0
VERTEX
  8
0
 10
0.08406741
 20
-0.01136781
 30
0.0
 70
192
  0
VERTEX
  8
0
 10
0.08384119
 20
-0.01143354
 30
0.0
 70
192
  0
VERTEX
  8
0
 10
0.08361953
 20
-0.01151334
 30
0.0
 70
192
  0
VERTEX
  8
0
 10
0.08340333
 20
-0.0116069
 30
0.0
 70
192
  0
VERTEX
  8
0
 10
0.08319342
 20
-0.01171385
 30
0.0
 70
192
  0
VERTEX
  8
0
 10
0.08299065
 20
-0.01183377
 30
0.0
 70
192
  0
VERTEX
  8
0
 10
0.08279581
 20
-0.01196619
 30
0.0
 70
192
  0
VERTEX
  8
0
 10
0.08260966
 20
-0.01211058
 30
0.0
 70
192
  0
VERTEX
  8
0
 10
0.08243295
 20
-0.01226637
 30
0.0
 70
192
  0
VERTEX
  8
0
 10
0.08226637
 20
-0.01243295
 30
0.0
 70
192
  0
VERTEX
  8
0
 10
0.08211058
 20
-0.01260966
 30
0.0
 70
192
  0
VERTEX
  8
0
 10
0.08196618
 20
-0.0127958
 30
0.0
 70
192
  0
VERTEX
  8
0
 10
0.08183377
 20
-0.01299065
 30
0.0
 70
192
  0
VERTEX
  8
0
 10
0.08171386
 20
-0.01319342
 30
0.0
 70
192
  0
VERTEX
  8
0
 10
0.08160689
 20
-0.01340333
 30
0.0
 70
192
  0
VERTEX
  8
0
 10
0.08151334
 20
-0.01361953
 30
0.0
 70
192
  0
VERTEX
  8
0
 10
0.08143354
 20
-0.01384119
 30
0.0
 70
192
  0
VERTEX
  8
0
 10
0.08136781
 20
-0.01406741
 30
0.0
 70
192
  0
VERTEX
  8
0
 10
0.08131642
 20
-0.01429732
 30
0.0
 70
192
  0
VERTEX
  8
0
 10
0.08127957
 20
-0.01453
 30
0.0
 70
192
  0
VERTEX
  8
0
 10
0.0812574
 20
-0.01476454
 30
0.0
 70
192
  0
VERTEX
  8
0
 10
0.08125
 20
-0.015
 30
0.0
 70
192
  0
VERTEX
  8
0
 10
0.0812574
 20
-0.01523546
 30
0.0
 70
192
  0
VERTEX
  8
0
 10
0.08127957
 20
-0.01547
 30
0.0
 70
192
  0
VERTEX
  8
0
 10
0.08131642
 20
-0.01570268
 30
0.0
 70
192
  0
VERTEX
  8
0
 10
0.08136781
 20
-0.01593259
 30
0.0
 70
192
  0
VERTEX
  8
0
 10
0.08143354
 20
-0.01615881
 30
0.0
 70
192
  0
VERTEX
  8
0
 10
0.08151334
 20
-0.01638047
 30
0.0
 70
192
  0
VERTEX
  8
0
 10
0.08160689
 20
-0.01659667
 30
0.0
 70
192
  0
VERTEX
  8
0
 10
0.08171386
 20
-0.01680658
 30
0.0
 70
192
  0
VERTEX
  8
0
 10
0.08183377
 20
-0.01700935
 30
0.0
 70
192
  0
VERTEX
  8
0
 10
0.08196618
 20
-0.0172042
 30
0.0
 70
192
  0
VERTEX
  8
0
 10
0.08211058
 20
-0.01739034
 30
0.0
 70
192
  0
VERTEX
  8
0
 10
0.08226637
 20
-0.01756705
 30
0.0
 70
192
  0
VERTEX
  8
0
 10
0.08243295
 20
-0.01773363
 30
0.0
 70
192
  0
VERTEX
  8
0
 10
0.08260966
 20
-0.01788943
 30
0.0
 70
192
  0
VERTEX
  8
0
 10
0.08279581
 20
-0.01803381
 30
0.0
 70
192
  0
VERTEX
  8
0
 10
0.08299065
 20
-0.01816623
 30
0.0
 70
192
  0
VERTEX
  8
0
 10
0.08319342
 20
-0.01828615
 30
0.0
 70
192
  0
VERTEX
  8
0
 10
0.08340333
 20
-0.0183931
 30
0.0
 70
192
  0
VERTEX
  8
0
 10
0.08361953
 20
-0.01848666
 30
0.0
 70
192
  0
VERTEX
  8
0
 10
0.08384119
 20
-0.01856646
 30
0.0
 70
192
  0
VERTEX
  8
0
 10
0.08406741
 20
-0.01863219
 30
0.0
 70
192
  0
VERTEX
  8
0
 10
0.08429731
 20
-0.01868358
 30
0.0
 70
192
  0
VERTEX
  8
0
 10
0.08453
 20
-0.01872043
 30
0.0
 70
192
  0
VERTEX
  8
0
 10
0.08476453
 20
-0.0187426
 30
0.0
 70
192
  0
VERTEX
  8
0
 10
0.085
 20
-0.01875
 30
0.0
 70
192
  0
VERTEX
  8
0
 10
0.08523547
 20
-0.0187426
 30
0.0
 70
192
  0
VERTEX
  8
0
 10
0.08547
 20
-0.01872043
 30
0.0
 70
192
  0
VERTEX
  8
0
 10
0.08570268
 20
-0.01868358
 30
0.0
 70
192
  0
VERTEX
  8
0
 10
0.08593259
 20
-0.01863219
 30
0.0
 70
192
  0
VERTEX
  8
0
 10
0.08615881
 20
-0.01856646
 30
0.0
 70
192
  0
VERTEX
  8
0
 10
0.08638047
 20
-0.01848666
 30
0.0
 70
192
  0
VERTEX
  8
0
 10
0.08659668
 20
-0.0183931
 30
0.0
 70
192
  0
VERTEX
  8
0
 10
0.08680658
 20
-0.01828615
 30
0.0
 70
192
  0
VERTEX
  8
0
 10
0.08700936
 20
-0.01816623
 30
0.0
 70
192
  0
VERTEX
  8
0
 10
0.0872042
 20
-0.01803381
 30
0.0
 70
192
  0
VERTEX
  8
0
 10
0.08739034
 20
-0.01788943
 30
0.0
 70
192
  0
VERTEX
  8
0
 10
0.08756705
 20
-0.01773363
 30
0.0
 70
192
  0
VERTEX
  8
0
 10
0.08773363
 20
-0.01756705
 30
0.0
 70
192
  0
VERTEX
  8
0
 10
0.08788943
 20
-0.01739034
 30
0.0
 70
192
  0
VERTEX
  8
0
 10
0.08803381
 20
-0.0172042
 30
0.0
 70
192
  0
VERTEX
  8
0
 10
0.08816623
 20
-0.01700935
 30
0.0
 70
192
  0
VERTEX
  8
0
 10
0.08828615
 20
-0.01680658
 30
0.0
 70
192
  0
VERTEX
  8
0
 10
0.08839311
 20
-0.01659667
 30
0.0
 70
192
  0
VERTEX
  8
0
 10
0.08848666
 20
-0.01638047
 30
0.0
 70
192
  0
VERTEX
  8
0
 10
0.08856646
 20
-0.01615881
 30
0.0
 70
192
  0
VERTEX
  8
0
 10
0.08863219
 20
-0.01593259
 30
0.0
 70
192
  0
VERTEX
  8
0
 10
0.08868358
 20
-0.01570268
 30
0.0
 70
192
  0
VERTEX
  8
0
 10
0.08872043
 20
-0.01547
 30
0.0
 70
192
  0
VERTEX
  8
0
 10
0.0887426
 20
-0.01523546
 30
0.0
 70
192
  0
VERTEX
  8
0
 10
0.1
 20
-0.05843047
 30
0.01863378
 70
192
  0
VERTEX
  8
0
 10
0.0
 20
0.0
 30
0.0
 70
128
 71
1
 72
3
 73
4
  0
VERTEX
  8
0
 10
0.0
 20
0.0
 30
0.0
 70
128
 71
1
 72
2
 73
3
  0
VERTEX
  8
0
 10
0.0
 20
0.0
 30
0.0
 70
128
 71
5
 72
6
 73
1
  0
VERTEX
  8
0
 10
0.0
 20
0.0
 30
0.0
 70
128
 71
1
 72
6
 73
2
  0
VERTEX
  8
0
 10
0.0
 20
0.0
 30
0.0
 70
128
 71
7
 72
2
 73
6
  0
VERTEX
  8
0
 10
0.0
 20
0.0
 30
0.0
 70
128
 71
2
 72
7
 73
3
  0
VERTEX
  8
0
 10
0.0
 20
0.0
 30
0.0
 70
128
 71
7
 72
8
 73
3
  0
VERTEX
  8
0
 10
0.0
 20
0.0
 30
0.0
 70
128
 71
8
 72
4
 73
3
  0
VERTEX
  8
0
 10
0.0
 20
0.0
 30
0.0
 70
128
 71
8
 72
5
 73
4
  0
VERTEX
  8
0
 10
0.0
 20
0.0
 30
0.0
 70
128
 71
4
 72
5
 73
1
  0
VERTEX
  8
0
 10
0.0
 20
0.0
 30
0.0
 70
128
 71
7
 72
11
 73
8
  0
VERTEX
  8
0
 10
0.0
 20
0.0
 30
0.0
 70
128
 71
10
 72
11
 73
7
  0
VERTEX
  8
0
 10
0.0
 20
0.0
 30
0.0
 70
128
 71
10
 72
7
 73
6
  0
VERTEX
  8
0
 10
0.0
 20
0.0
 30
0.0
 70
128
 71
10
 72
6
 73
9
  0
VERTEX
  8
0
 10
0.0
 20
0.0
 30
0.0
 70
128
 71
6
 72
5
 73
9
  0
VERTEX
  8
0
 10
0.0
 20
0.0
 30
0.0
 70
128
 71
9
 72
16
 73
13
  0
VERTEX
  8
0
 10
0.0
 20
0.0
 30
0.0
 70
128
 71
9
 72
12
 73
16
  0
VERTEX
  8
0
 10
0.0
 20
0.0
 30
0.0
 70
128
 71
11
 72
14
 73
15
  0
VERTEX
  8
0
 10
0.0
 20
0.0
 30
0.0
 70
128
 71
11
 72
10
 73
14
  0
VERTEX
  8
0
 10
0.0
 20
0.0
 30
0.0
 70
128
 71
10
 72
13
 73
14
  0
VERTEX
  8
0
 10
0.0
 20
0.0
 30
0.0
 70
128
 71
10
 72
9
 73
13
  0
VERTEX
  8
0
 10
0.0
 20
0.0
 30
0.0
 70
128
 71
12
 72
17
 73
217
  0
VERTEX
  8
0
 10
0.0
 20
0.0
 30
0.0
 70
128
 71
17
 72
8
 73
217
  0
VERTEX
  8
0
 10
0.0
 20
0.0
 30
0.0
 70
128
 71
8
 72
11
 73
217
  0
VERTEX
  8
0
 10
0.0
 20
0.0
 30
0.0
 70
128
 71
12
 72
18
 73
17
  0
VERTEX
  8
0
 10
0.0
 20
0.0
 30
0.0
 70
128
 71
12
 72
19
 73
18
  0
VERTEX
  8
0
 10
0.0
 20
0.0
 30
0.0
 70
128
 71
12
 72
20
 73
19
  0
VERTEX
  8
0
 10
0.0
 20
0.0
 30
0.0
 70
128
 71
12
 72
21
 73
20
  0
VERTEX
  8
0
 10
0.0
 20
0.0
 30
0.0
 70
128
 71
12
 72
22
 73
21
  0
VERTEX
  8
0
 10
0.0
 20
0.0
 30
0.0
 70
128
 71
12
 72
23
 73
22
  0
VERTEX
  8
0
 10
0.0
 20
0.0
 30
0.0
 70
128
 71
12
 72
24
 73
23
  0
VERTEX
  8
0
 10
0.0
 20
0.0
 30
0.0
 70
128
 71
12
 72
25
 73
24
  0
VERTEX
  8
0
 10
0.0
 20
0.0
 30
0.0
 70
128
 71
12
 72
26
 73
25
  0
VERTEX
  8
0
 10
0.0
 20
0.0
 30
0.0
 70
128
 71
12
 72
27
 73
26
  0
VERTEX
  8
0
 10
0.0
 20
0.0
 30
0.0
 70
128
 71
12
 72
28
 73
27
  0
VERTEX
  8
0
 10
0.0
 20
0.0
 30
0.0
 70
128
 71
12
 72
29
 73
28
  0
VERTEX
  8
0
 10
0.0
 20
0.0
 30
0.0
 70
128
 71
12
 72
30
 73
29
  0
VERTEX
  8
0
 10
0.0
 20
0.0
 30
0.0
 70
128
 71
12
 72
31
 73
30
  0
VERTEX
  8
0
 10
0.0
 20
0.0
 30
0.0
 70
128
 71
12
 72
32
 73
31
  0
VERTEX
  8
0
 10
0.0
 20
0.0
 30
0.0
 70
128
 71
12
 72
33
 73
32
  0
VERTEX
  8
0
 10
0.0
 20
0.0
 30
0.0
 70
128
 71
12
 72
34
 73
33
  0
VERTEX
  8
0
 10
0.0
 20
0.0
 30
0.0
 70
128
 71
12
 72
35
 73
34
  0
VERTEX
  8
0
 10
0.0
 20
0.0
 30
0.0
 70
128
 71
12
 72
36
 73
35
  0
VERTEX
  8
0
 10
0.0
 20
0.0
 30
0.0
 70
128
 71
12
 72
37
 73
36
  0
VERTEX
  8
0
 10
0.0
 20
0.0
 30
0.0
 70
128
 71
12
 72
38
 73
37
  0
VERTEX
  8
0
 10
0.0
 20
0.0
 30
0.0
 70
128
 71
12
 72
39
 73
38
  0
VERTEX
  8
0
 10
0.0
 20
0.0
 30
0.0
 70
128
 71
12
 72
40
 73
39
  0
VERTEX
  8
0
 10
0.0
 20
0.0
 30
0.0
 70
128
 71
12
 72
41
 73
40
  0
VERTEX
  8
0
 10
0.0
 20
0.0
 30
0.0
 70
128
 71
12
 72
9
 73
41
  0
VERTEX
  8
0
 10
0.0
 20
0.0
 30
0.0
 70
128
 71
9
 72
42
 73
41
  0
VERTEX
  8
0
 10
0.0
 20
0.0
 30
0.0
 70
128
 71
9
 72
43
 73
42
  0
VERTEX
  8
0
 10
0.0
 20
0.0
 30
0.0
 70
128
 71
9
 72
44
 73
43
  0
VERTEX
  8
0
 10
0.0
 20
0.0
 30
0.0
 70
128
 71
9
 72
45
 73
44
  0
VERTEX
  8
0
 10
0.0
 20
0.0
 30
0.0
 70
128
 71
9
 72
46
 73
45
  0
VERTEX
  8
0
 10
0.0
 20
0.0
 30
0.0
 70
128
 71
9
 72
47
 73
46
  0
VERTEX
  8
0
 10
0.0
 20
0.0
 30
0.0
 70
128
 71
9
 72
48
 73
47
  0
VERTEX
  8
0
 10
0.0
 20
0.0
 30
0.0
 70
128
 71
9
 72
49
 73
48
  0
VERTEX
  8
0
 10
0.0
 20
0.0
 30
0.0
 70
128
 71
9
 72
50
 73
49
  0
VERTEX
  8
0
 10
0.0
 20
0.0
 30
0.0
 70
128
 71
9
 72
51
 73
50
  0
VERTEX
  8
0
 10
0.0
 20
0.0
 30
0.0
 70
128
 71
9
 72
52
 73
51
  0
VERTEX
  8
0
 10
0.0
 20
0.0
 30
0.0
 70
128
 71
9
 72
53
 73
52
  0
VERTEX
  8
0
 10
0.0
 20
0.0
 30
0.0
 70
128
 71
9
 72
54
 73
53
  0
VERTEX
  8
0
 10
0.0
 20
0.0
 30
0.0
 70
128
 71
9
 72
55
 73
54
  0
VERTEX
  8
0
 10
0.0
 20
0.0
 30
0.0
 70
128
 71
9
 72
56
 73
55
  0
VERTEX
  8
0
 10
0.0
 20
0.0
 30
0.0
 70
128
 71
9
 72
57
 73
56
  0
VERTEX
  8
0
 10
0.0
 20
0.0
 30
0.0
 70
128
 71
9
 72
58
 73
57
  0
VERTEX
  8
0
 10
0.0
 20
0.0
 30
0.0
 70
128
 71
9
 72
59
 73
58
  0
VERTEX
  8
0
 10
0.0
 20
0.0
 30
0.0
 70
128
 71
9
 72
60
 73
59
  0
VERTEX
  8
0
 10
0.0
 20
0.0
 30
0.0
 70
128
 71
9
 72
61
 73
60
  0
VERTEX
  8
0
 10
0.0
 20
0.0
 30
0.0
 70
128
 71
9
 72
62
 73
61
  0
VERTEX
  8
0
 10
0.0
 20
0.0
 30
0.0
 70
128
 71
9
 72
63
 73
62
  0
VERTEX
  8
0
 10
0.0
 20
0.0
 30
0.0
 70
128
 71
9
 72
64
 73
63
  0
VERTEX
  8
0
 10
0.0
 20
0.0
 30
0.0
 70
128
 71
9
 72
65
 73
64
  0
VERTEX
  8
0
 10
0.0
 20
0.0
 30
0.0
 70
128
 71
9
 72
66
 73
65
  0
VERTEX
  8
0
 10
0.0
 20
0.0
 30
0.0
 70
128
 71
9
 72
5
 73
66
  0
VERTEX
  8
0
 10
0.0
 20
0.0
 30
0.0
 70
128
 71
5
 72
67
 73
66
  0
VERTEX
  8
0
 10
0.0
 20
0.0
 30
0.0
 70
128
 71
5
 72
68
 73
67
  0
VERTEX
  8
0
 10
0.0
 20
0.0
 30
0.0
 70
128
 71
5
 72
69
 73
68
  0
VERTEX
  8
0
 10
0.0
 20
0.0
 30
0.0
 70
128
 71
5
 72
70
 73
69
  0
VERTEX
  8
0
 10
0.0
 20
0.0
 30
0.0
 70
128
 71
5
 72
71
 73
70
  0
VERTEX
  8
0
 10
0.0
 20
0.0
 30
0.0
 70
128
 71
5
 72
72
 73
71
  0
VERTEX
  8
0
 10
0.0
 20
0.0
 30
0.0
 70
128
 71
5
 72
73
 73
72
  0
VERTEX
  8
0
 10
0.0
 20
0.0
 30
0.0
 70
128
 71
5
 72
74
 73
73
  0
VERTEX
  8
0
 10
0.0
 20
0.0
 30
0.0
 70
128
 71
5
 72
75
 73
74
  0
VERTEX
  8
0
 10
0.0
 20
0.0
 30
0.0
 70
128
 71
5
 72
76
 73
75
  0
VERTEX
  8
0
 10
0.0
 20
0.0
 30
0.0
 70
128
 71
5
 72
77
 73
76
  0
VERTEX
  8
0
 10
0.0
 20
0.0
 30
0.0
 70
128
 71
5
 72
78
 73
77
  0
VERTEX
  8
0
 10
0.0
 20
0.0
 30
0.0
 70
128
 71
5
 72
79
 73
78
  0
VERTEX
  8
0
 10
0.0
 20
0.0
 30
0.0
 70
128
 71
5
 72
80
 73
79
  0
VERTEX
  8
0
 10
0.0
 20
0.0
 30
0.0
 70
128
 71
5
 72
81
 73
80
  0
VERTEX
  8
0
 10
0.0
 20
0.0
 30
0.0
 70
128
 71
5
 72
82
 73
81
  0
VERTEX
  8
0
 10
0.0
 20
0.0
 30
0.0
 70
128
 71
5
 72
83
 73
82
  0
VERTEX
  8
0
 10
0.0
 20
0.0
 30
0.0
 70
128
 71
5
 72
84
 73
83
  0
VERTEX
  8
0
 10
0.0
 20
0.0
 30
0.0
 70
128
 71
5
 72
85
 73
84
  0
VERTEX
  8
0
 10
0.0
 20
0.0
 30
0.0
 70
128
 71
5
 72
86
 73
85
  0
VERTEX
  8
0
 10
0.0
 20
0.0
 30
0.0
 70
128
 71
5
 72
87
 73
86
  0
VERTEX
  8
0
 10
0.0
 20
0.0
 30
0.0
 70
128
 71
5
 72
88
 73
87
  0
VERTEX
  8
0
 10
0.0
 20
0.0
 30
0.0
 70
128
 71
5
 72
89
 73
88
  0
VERTEX
  8
0
 10
0.0
 20
0.0
 30
0.0
 70
128
 71
5
 72
90
 73
89
  0
VERTEX
  8
0
 10
0.0
 20
0.0
 30
0.0
 70
128
 71
5
 72
91
 73
90
  0
VERTEX
  8
0
 10
0.0
 20
0.0
 30
0.0
 70
128
 71
5
 72
92
 73
91
  0
VERTEX
  8
0
 10
0.0
 20
0.0
 30
0.0
 70
128
 71
5
 72
8
 73
92
  0
VERTEX
  8
0
 10
0.0
 20
0.0
 30
0.0
 70
128
 71
8
 72
93
 73
92
  0
VERTEX
  8
0
 10
0.0
 20
0.0
 30
0.0
 70
128
 71
8
 72
94
 73
93
  0
VERTEX
  8
0
 10
0.0
 20
0.0
 30
0.0
 70
128
 71
8
 72
95
 73
94
  0
VERTEX
  8
0
 10
0.0
 20
0.0
 30
0.0
 70
128
 71
8
 72
96
 73
95
  0
VERTEX
  8
0
 10
0.0
 20
0.0
 30
0.0
 70
128
 71
8
 72
97
 73
96
  0
VERTEX
  8
0
 10
0.0
 20
0.0
 30
0.0
 70
128
 71
8
 72
98
 73
97
  0
VERTEX
  8
0
 10
0.0
 20
0.0
 30
0.0
 70
128
 71
8
 72
99
 73
98
  0
VERTEX
  8
0
 10
0.0
 20
0.0
 30
0.0
 70
128
 71
8
 72
100
 73
99
  0
VERTEX
  8
0
 10
0.0
 20
0.0
 30
0.0
 70
128
 71
8
 72
101
 73
100
  0
VERTEX
  8
0
 10
0.0
 20
0.0
 30
0.0
 70
128
 71
8
 72
102
 73
101
  0
VERTEX
  8
0
 10
0.0
 20
0.0
 30
0.0
 70
128
 71
8
 72
103
 73
102
  0
VERTEX
  8
0
 10
0.0
 20
0.0
 30
0.0
 70
128
 71
8
 72
104
 73
103
  0
VERTEX
  8
0
 10
0.0
 20
0.0
 30
0.0
 70
128
 71
8
 72
105
 73
104
  0
VERTEX
  8
0
 10
0.0
 20
0.0
 30
0.0
 70
128
 71
8
 72
106
 73
105
  0
VERTEX
  8
0
 10
0.0
 20
0.0
 30
0.0
 70
128
 71
8
 72
107
 73
106
  0
VERTEX
  8
0
 10
0.0
 20
0.0
 30
0.0
 70
128
 71
8
 72
108
 73
107
  0
VERTEX
  8
0
 10
0.0
 20
0.0
 30
0.0
 70
128
 71
8
 72
109
 73
108
  0
VERTEX
  8
0
 10
0.0
 20
0.0
 30
0.0
 70
128
 71
8
 72
110
 73
109
  0
VERTEX
  8
0
 10
0.0
 20
0.0
 30
0.0
 70
128
 71
8
 72
111
 73
110
  0
VERTEX
  8
0
 10
0.0
 20
0.0
 30
0.0
 70
128
 71
8
 72
112
 73
111
  0
VERTEX
  8
0
 10
0.0
 20
0.0
 30
0.0
 70
128
 71
8
 72
113
 73
112
  0
VERTEX
  8
0
 10
0.0
 20
0.0
 30
0.0
 70
128
 71
8
 72
114
 73
113
  0
VERTEX
  8
0
 10
0.0
 20
0.0
 30
0.0
 70
128
 71
8
 72
115
 73
114
  0
VERTEX
  8
0
 10
0.0
 20
0.0
 30
0.0
 70
128
 71
8
 72
116
 73
115
  0
VERTEX
  8
0
 10
0.0
 20
0.0
 30
0.0
 70
128
 71
17
 72
116
 73
8
  0
VERTEX
  8
0
 10
0.0
 20
0.0
 30
0.0
 70
128
 71
117
 72
216
 73
116
  0
VERTEX
  8
0
 10
0.0
 20
0.0
 30
0.0
 70
128
 71
117
 72
116
 73
17
  0
VERTEX
  8
0
 10
0.0
 20
0.0
 30
0.0
 70
128
 71
118
 72
117
 73
17
  0
VERTEX
  8
0
 10
0.0
 20
0.0
 30
0.0
 70
128
 71
118
 72
17
 73
18
  0
VERTEX
  8
0
 10
0.0
 20
0.0
 30
0.0
 70
128
 71
15
 72
216
 73
117
  0
VERTEX
  8
0
 10
0.0
 20
0.0
 30
0.0
 70
128
 71
15
 72
117
 73
16
  0
VERTEX
  8
0
 10
0.0
 20
0.0
 30
0.0
 70
128
 71
16
 72
117
 73
118
  0
VERTEX
  8
0
 10
0.0
 20
0.0
 30
0.0
 70
128
 71
119
 72
118
 73
18
  0
VERTEX
  8
0
 10
0.0
 20
0.0
 30
0.0
 70
128
 71
119
 72
18
 73
19
  0
VERTEX
  8
0
 10
0.0
 20
0.0
 30
0.0
 70
128
 71
16
 72
118
 73
119
  0
VERTEX
  8
0
 10
0.0
 20
0.0
 30
0.0
 70
128
 71
120
 72
119
 73
19
  0
VERTEX
  8
0
 10
0.0
 20
0.0
 30
0.0
 70
128
 71
120
 72
19
 73
20
  0
VERTEX
  8
0
 10
0.0
 20
0.0
 30
0.0
 70
128
 71
16
 72
119
 73
120
  0
VERTEX
  8
0
 10
0.0
 20
0.0
 30
0.0
 70
128
 71
121
 72
120
 73
20
  0
VERTEX
  8
0
 10
0.0
 20
0.0
 30
0.0
 70
128
 71
121
 72
20
 73
21
  0
VERTEX
  8
0
 10
0.0
 20
0.0
 30
0.0
 70
128
 71
16
 72
120
 73
121
  0
VERTEX
  8
0
 10
0.0
 20
0.0
 30
0.0
 70
128
 71
122
 72
121
 73
21
  0
VERTEX
  8
0
 10
0.0
 20
0.0
 30
0.0
 70
128
 71
122
 72
21
 73
22
  0
VERTEX
  8
0
 10
0.0
 20
0.0
 30
0.0
 70
128
 71
16
 72
121
 73
122
  0
VERTEX
  8
0
 10
0.0
 20
0.0
 30
0.0
 70
128
 71
123
 72
122
 73
22
  0
VERTEX
  8
0
 10
0.0
 20
0.0
 30
0.0
 70
128
 71
123
 72
22
 73
23
  0
VERTEX
  8
0
 10
0.0
 20
0.0
 30
0.0
 70
128
 71
16
 72
122
 73
123
  0
VERTEX
  8
0
 10
0.0
 20
0.0
 30
0.0
 70
128
 71
124
 72
123
 73
23
  0
VERTEX
  8
0
 10
0.0
 20
0.0
 30
0.0
 70
128
 71
124
 72
23
 73
24
  0
VERTEX
  8
0
 10
0.0
 20
0.0
 30
0.0
 70
128
 71
16
 72
123
 73
124
  0
VERTEX
  8
0
 10
0.0
 20
0.0
 30
0.0
 70
128
 71
125
 72
124
 73
24
  0
VERTEX
  8
0
 10
0.0
 20
0.0
 30
0.0
 70
128
 71
125
 72
24
 73
25
  0
VERTEX
  8
0
 10
0.0
 20
0.0
 30
0.0
 70
128
 71
16
 72
124
 73
125
  0
VERTEX
  8
0
 10
0.0
 20
0.0
 30
0.0
 70
128
 71
126
 72
125
 73
25
  0
VERTEX
  8
0
 10
0.0
 20
0.0
 30
0.0
 70
128
 71
126
 72
25
 73
26
  0
VERTEX
  8
0
 10
0.0
 20
0.0
 30
0.0
 70
128
 71
16
 72
125
 73
126
  0
VERTEX
  8
0
 10
0.0
 20
0.0
 30
0.0
 70
128
 71
127
 72
126
 73
26
  0
VERTEX
  8
0
 10
0.0
 20
0.0
 30
0.0
 70
128
 71
127
 72
26
 73
27
  0
VERTEX
  8
0
 10
0.0
 20
0.0
 30
0.0
 70
128
 71
16
 72
126
 73
127
  0
VERTEX
  8
0
 10
0.0
 20
0.0
 30
0.0
 70
128
 71
128
 72
127
 73
27
  0
VERTEX
  8
0
 10
0.0
 20
0.0
 30
0.0
 70
128
 71
128
 72
27
 73
28
  0
VERTEX
  8
0
 10
0.0
 20
0.0
 30
0.0
 70
128
 71
16
 72
127
 73
128
  0
VERTEX
  8
0
 10
0.0
 20
0.0
 30
0.0
 70
128
 71
129
 72
128
 73
28
  0
VERTEX
  8
0
 10
0.0
 20
0.0
 30
0.0
 70
128
 71
129
 72
28
 73
29
  0
VERTEX
  8
0
 10
0.0
 20
0.0
 30
0.0
 70
128
 71
16
 72
128
 73
129
  0
VERTEX
  8
0
 10
0.0
 20
0.0
 30
0.0
 70
128
 71
130
 72
129
 73
29
  0
VERTEX
  8
0
 10
0.0
 20
0.0
 30
0.0
 70
128
 71
130
 72
29
 73
30
  0
VERTEX
  8
0
 10
0.0
 20
0.0
 30
0.0
 70
128
 71
16
 72
129
 73
130
  0
VERTEX
  8
0
 10
0.0
 20
0.0
 30
0.0
 70
128
 71
131
 72
130
 73
30
  0
VERTEX
  8
0
 10
0.0
 20
0.0
 30
0.0
 70
128
 71
131
 72
30
 73
31
  0
VERTEX
  8
0
 10
0.0
 20
0.0
 30
0.0
 70
128
 71
16
 72
130
 73
131
  0
VERTEX
  8
0
 10
0.0
 20
0.0
 30
0.0
 70
128
 71
132
 72
131
 73
31
  0
VERTEX
  8
0
 10
0.0
 20
0.0
 30
0.0
 70
128
 71
132
 72
31
 73
32
  0
VERTEX
  8
0
 10
0.0
 20
0.0
 30
0.0
 70
128
 71
16
 72
131
 73
132
  0
VERTEX
  8
0
 10
0.0
 20
0.0
 30
0.0
 70
128
 71
133
 72
132
 73
32
  0
VERTEX
  8
0
 10
0.0
 20
0.0
 30
0.0
 70
128
 71
133
 72
32
 73
33
  0
VERTEX
  8
0
 10
0.0
 20
0.0
 30
0.0
 70
128
 71
16
 72
132
 73
133
  0
VERTEX
  8
0
 10
0.0
 20
0.0
 30
0.0
 70
128
 71
134
 72
133
 73
33
  0
VERTEX
  8
0
 10
0.0
 20
0.0
 30
0.0
 70
128
 71
134
 72
33
 73
34
  0
VERTEX
  8
0
 10
0.0
 20
0.0
 30
0.0
 70
128
 71
16
 72
133
 73
134
  0
VERTEX
  8
0
 10
0.0
 20
0.0
 30
0.0
 70
128
 71
135
 72
134
 73
34
  0
VERTEX
  8
0
 10
0.0
 20
0.0
 30
0.0
 70
128
 71
135
 72
34
 73
35
  0
VERTEX
  8
0
 10
0.0
 20
0.0
 30
0.0
 70
128
 71
16
 72
134
 73
135
  0
VERTEX
  8
0
 10
0.0
 20
0.0
 30
0.0
 70
128
 71
136
 72
135
 73
35
  0
VERTEX
  8
0
 10
0.0
 20
0.0
 30
0.0
 70
128
 71
136
 72
35
 73
36
  0
VERTEX
  8
0
 10
0.0
 20
0.0
 30
0.0
 70
128
 71
16
 72
135
 73
136
  0
VERTEX
  8
0
 10
0.0
 20
0.0
 30
0.0
 70
128
 71
137
 72
136
 73
36
  0
VERTEX
  8
0
 10
0.0
 20
0.0
 30
0.0
 70
128
 71
137
 72
36
 73
37
  0
VERTEX
  8
0
 10
0.0
 20
0.0
 30
0.0
 70
128
 71
16
 72
136
 73
137
  0
VERTEX
  8
0
 10
0.0
 20
0.0
 30
0.0
 70
128
 71
138
 72
137
 73
37
  0
VERTEX
  8
0
 10
0.0
 20
0.0
 30
0.0
 70
128
 71
138
 72
37
 73
38
  0
VERTEX
  8
0
 10
0.0
 20
0.0
 30
0.0
 70
128
 71
16
 72
137
 73
138
  0
VERTEX
  8
0
 10
0.0
 20
0.0
 30
0.0
 70
128
 71
139
 72
138
 73
38
  0
VERTEX
  8
0
 10
0.0
 20
0.0
 30
0.0
 70
128
 71
139
 72
38
 73
39
  0
VERTEX
  8
0
 10
0.0
 20
0.0
 30
0.0
 70
128
 71
16
 72
138
 73
139
  0
VERTEX
  8
0
 10
0.0
 20
0.0
 30
0.0
 70
128
 71
140
 72
139
 73
39
  0
VERTEX
  8
0
 10
0.0
 20
0.0
 30
0.0
 70
128
 71
140
 72
39
 73
40
  0
VERTEX
  8
0
 10
0.0
 20
0.0
 30
0.0
 70
128
 71
16
 72
139
 73
140
  0
VERTEX
  8
0
 10
0.0
 20
0.0
 30
0.0
 70
128
 71
141
 72
140
 73
40
  0
VERTEX
  8
0
 10
0.0
 20
0.0
 30
0.0
 70
128
 71
141
 72
40
 73
41
  0
VERTEX
  8
0
 10
0.0
 20
0.0
 30
0.0
 70
128
 71
16
 72
140
 73
141
  0
VERTEX
  8
0
 10
0.0
 20
0.0
 30
0.0
 70
128
 71
142
 72
141
 73
41
  0
VERTEX
  8
0
 10
0.0
 20
0.0
 30
0.0
 70
128
 71
142
 72
41
 73
42
  0
VERTEX
  8
0
 10
0.0
 20
0.0
 30
0.0
 70
128
 71
13
 72
16
 73
141
  0
VERTEX
  8
0
 10
0.0
 20
0.0
 30
0.0
 70
128
 71
13
 72
141
 73
142
  0
VERTEX
  8
0
 10
0.0
 20
0.0
 30
0.0
 70
128
 71
143
 72
142
 73
42
  0
VERTEX
  8
0
 10
0.0
 20
0.0
 30
0.0
 70
128
 71
143
 72
42
 73
43
  0
VERTEX
  8
0
 10
0.0
 20
0.0
 30
0.0
 70
128
 71
13
 72
142
 73
143
  0
VERTEX
  8
0
 10
0.0
 20
0.0
 30
0.0
 70
128
 71
144
 72
143
 73
43
  0
VERTEX
  8
0
 10
0.0
 20
0.0
 30
0.0
 70
128
 71
144
 72
43
 73
44
  0
VERTEX
  8
0
 10
0.0
 20
0.0
 30
0.0
 70
128
 71
13
 72
143
 73
144
  0
VERTEX
  8
0
 10
0.0
 20
0.0
 30
0.0
 70
128
 71
145
 72
144
 73
44
  0
VERTEX
  8
0
 10
0.0
 20
0.0
 30
0.0
 70
128
 71
145
 72
44
 73
45
  0
VERTEX
  8
0
 10
0.0
 20
0.0
 30
0.0
 70
128
 71
13
 72
144
 73
145
  0
VERTEX
  8
0
 10
0.0
 20
0.0
 30
0.0
 70
128
 71
146
 72
145
 73
45
  0
VERTEX
  8
0
 10
0.0
 20
0.0
 30
0.0
 70
128
 71
146
 72
45
 73
46
  0
VERTEX
  8
0
 10
0.0
 20
0.0
 30
0.0
 70
128
 71
13
 72
145
 73
146
  0
VERTEX
  8
0
 10
0.0
 20
0.0
 30
0.0
 70
128
 71
147
 72
146
 73
46
  0
VERTEX
  8
0
 10
0.0
 20
0.0
 30
0.0
 70
128
 71
147
 72
46
 73
47
  0
VERTEX
  8
0
 10
0.0
 20
0.0
 30
0.0
 70
128
 71
13
 72
146
 73
147
  0
VERTEX
  8
0
 10
0.0
 20
0.0
 30
0.0
 70
128
 71
148
 72
147
 73
47
  0
VERTEX
  8
0
 10
0.0
 20
0.0
 30
0.0
 70
128
 71
148
 72
47
 73
48
  0
VERTEX
  8
0
 10
0.0
 20
0.0
 30
0.0
 70
128
 71
13
 72
147
 73
148
  0
VERTEX
  8
0
 10
0.0
 20
0.0
 30
0.0
 70
128
 71
149
 72
148
 73
48
  0
VERTEX
  8
0
 10
0.0
 20
0.0
 30
0.0
 70
128
 71
149
 72
48
 73
49
  0
VERTEX
  8
0
 10
0.0
 20
0.0
 30
0.0
 70
128
 71
13
 72
148
 73
149
  0
VERTEX
  8
0
 10
0.0
 20
0.0
 30
0.0
 70
128
 71
150
 72
149
 73
49
  0
VERTEX
  8
0
 10
0.0
 20
0.0
 30
0.0
 70
128
 71
150
 72
49
 73
50
  0
VERTEX
  8
0
 10
0.0
 20
0.0
 30
0.0
 70
128
 71
13
 72
149
 73
150
  0
VERTEX
  8
0
 10
0.0
 20
0.0
 30
0.0
 70
128
 71
151
 72
150
 73
50
  0
VERTEX
  8
0
 10
0.0
 20
0.0
 30
0.0
 70
128
 71
151
 72
50
 73
51
  0
VERTEX
  8
0
 10
0.0
 20
0.0
 30
0.0
 70
128
 71
13
 72
150
 73
151
  0
VERTEX
  8
0
 10
0.0
 20
0.0
 30
0.0
 70
128
 71
152
 72
151
 73
51
  0
VERTEX
  8
0
 10
0.0
 20
0.0
 30
0.0
 70
128
 71
152
 72
51
 73
52
  0
VERTEX
  8
0
 10
0.0
 20
0.0
 30
0.0
 70
128
 71
13
 72
151
 73
152
  0
VERTEX
  8
0
 10
0.0
 20
0.0
 30
0.0
 70
128
 71
153
 72
152
 73
52
  0
VERTEX
  8
0
 10
0.0
 20
0.0
 30
0.0
 70
128
 71
153
 72
52
 73
53
  0
VERTEX
  8
0
 10
0.0
 20
0.0
 30
0.0
 70
128
 71
13
 72
152
 73
153
  0
VERTEX
  8
0
 10
0.0
 20
0.0
 30
0.0
 70
128
 71
154
 72
153
 73
53
  0
VERTEX
  8
0
 10
0.0
 20
0.0
 30
0.0
 70
128
 71
154
 72
53
 73
54
  0
VERTEX
  8
0
 10
0.0
 20
0.0
 30
0.0
 70
128
 71
13
 72
153
 73
154
  0
VERTEX
  8
0
 10
0.0
 20
0.0
 30
0.0
 70
128
 71
155
 72
154
 73
54
  0
VERTEX
  8
0
 10
0.0
 20
0.0
 30
0.0
 70
128
 71
155
 72
54
 73
55
  0
VERTEX
  8
0
 10
0.0
 20
0.0
 30
0.0
 70
128
 71
13
 72
154
 73
155
  0
VERTEX
  8
0
 10
0.0
 20
0.0
 30
0.0
 70
128
 71
156
 72
155
 73
55
  0
VERTEX
  8
0
 10
0.0
 20
0.0
 30
0.0
 70
128
 71
156
 72
55
 73
56
  0
VERTEX
  8
0
 10
0.0
 20
0.0
 30
0.0
 70
128
 71
13
 72
155
 73
156
  0
VERTEX
  8
0
 10
0.0
 20
0.0
 30
0.0
 70
128
 71
157
 72
156
 73
56
  0
VERTEX
  8
0
 10
0.0
 20
0.0
 30
0.0
 70
128
 71
157
 72
56
 73
57
  0
VERTEX
  8
0
 10
0.0
 20
0.0
 30
0.0
 70
128
 71
13
 72
156
 73
157
  0
VERTEX
  8
0
 10
0.0
 20
0.0
 30
0.0
 70
128
 71
158
 72
157
 73
57
  0
VERTEX
  8
0
 10
0.0
 20
0.0
 30
0.0
 70
128
 71
158
 72
57
 73
58
  0
VERTEX
  8
0
 10
0.0
 20
0.0
 30
0.0
 70
128
 71
13
 72
157
 73
158
  0
VERTEX
  8
0
 10
0.0
 20
0.0
 30
0.0
 70
128
 71
159
 72
158
 73
58
  0
VERTEX
  8
0
 10
0.0
 20
0.0
 30
0.0
 70
128
 71
159
 72
58
 73
59
  0
VERTEX
  8
0
 10
0.0
 20
0.0
 30
0.0
 70
128
 71
13
 72
158
 73
159
  0
VERTEX
  8
0
 10
0.0
 20
0.0
 30
0.0
 70
128
 71
160
 72
159
 73
59
  0
VERTEX
  8
0
 10
0.0
 20
0.0
 30
0.0
 70
128
 71
160
 72
59
 73
60
  0
VERTEX
  8
0
 10
0.0
 20
0.0
 30
0.0
 70
128
 71
13
 72
159
 73
160
  0
VERTEX
  8
0
 10
0.0
 20
0.0
 30
0.0
 70
128
 71
161
 72
160
 73
60
  0
VERTEX
  8
0
 10
0.0
 20
0.0
 30
0.0
 70
128
 71
161
 72
60
 73
61
  0
VERTEX
  8
0
 10
0.0
 20
0.0
 30
0.0
 70
128
 71
13
 72
160
 73
161
  0
VERTEX
  8
0
 10
0.0
 20
0.0
 30
0.0
 70
128
 71
162
 72
161
 73
61
  0
VERTEX
  8
0
 10
0.0
 20
0.0
 30
0.0
 70
128
 71
162
 72
61
 73
62
  0
VERTEX
  8
0
 10
0.0
 20
0.0
 30
0.0
 70
128
 71
13
 72
161
 73
162
  0
VERTEX
  8
0
 10
0.0
 20
0.0
 30
0.0
 70
128
 71
163
 72
162
 73
62
  0
VERTEX
  8
0
 10
0.0
 20
0.0
 30
0.0
 70
128
 71
163
 72
62
 73
63
  0
VERTEX
  8
0
 10
0.0
 20
0.0
 30
0.0
 70
128
 71
13
 72
162
 73
163
  0
VERTEX
  8
0
 10
0.0
 20
0.0
 30
0.0
 70
128
 71
164
 72
163
 73
63
  0
VERTEX
  8
0
 10
0.0
 20
0.0
 30
0.0
 70
128
 71
164
 72
63
 73
64
  0
VERTEX
  8
0
 10
0.0
 20
0.0
 30
0.0
 70
128
 71
13
 72
163
 73
164
  0
VERTEX
  8
0
 10
0.0
 20
0.0
 30
0.0
 70
128
 71
165
 72
164
 73
64
  0
VERTEX
  8
0
 10
0.0
 20
0.0
 30
0.0
 70
128
 71
165
 72
64
 73
65
  0
VERTEX
  8
0
 10
0.0
 20
0.0
 30
0.0
 70
128
 71
13
 72
164
 73
165
  0
VERTEX
  8
0
 10
0.0
 20
0.0
 30
0.0
 70
128
 71
166
 72
165
 73
65
  0
VERTEX
  8
0
 10
0.0
 20
0.0
 30
0.0
 70
128
 71
166
 72
65
 73
66
  0
VERTEX
  8
0
 10
0.0
 20
0.0
 30
0.0
 70
128
 71
13
 72
165
 73
166
  0
VERTEX
  8
0
 10
0.0
 20
0.0
 30
0.0
 70
128
 71
167
 72
166
 73
66
  0
VERTEX
  8
0
 10
0.0
 20
0.0
 30
0.0
 70
128
 71
167
 72
66
 73
67
  0
VERTEX
  8
0
 10
0.0
 20
0.0
 30
0.0
 70
128
 71
14
 72
13
 73
166
  0
VERTEX
  8
0
 10
0.0
 20
0.0
 30
0.0
 70
128
 71
14
 72
166
 73
167
  0
VERTEX
  8
0
 10
0.0
 20
0.0
 30
0.0
 70
128
 71
168
 72
167
 73
67
  0
VERTEX
  8
0
 10
0.0
 20
0.0
 30
0.0
 70
128
 71
168
 72
67
 73
68
  0
VERTEX
  8
0
 10
0.0
 20
0.0
 30
0.0
 70
128
 71
14
 72
167
 73
168
  0
VERTEX
  8
0
 10
0.0
 20
0.0
 30
0.0
 70
128
 71
169
 72
168
 73
68
  0
VERTEX
  8
0
 10
0.0
 20
0.0
 30
0.0
 70
128
 71
169
 72
68
 73
69
  0
VERTEX
  8
0
 10
0.0
 20
0.0
 30
0.0
 70
128
 71
14
 72
168
 73
169
  0
VERTEX
  8
0
 10
0.0
 20
0.0
 30
0.0
 70
128
 71
170
 72
169
 73
69
  0
VERTEX
  8
0
 10
0.0
 20
0.0
 30
0.0
 70
128
 71
170
 72
69
 73
70
  0
VERTEX
  8
0
 10
0.0
 20
0.0
 30
0.0
 70
128
 71
14
 72
169
 73
170
  0
VERTEX
  8
0
 10
0.0
 20
0.0
 30
0.0
 70
128
 71
171
 72
170
 73
70
  0
VERTEX
  8
0
 10
0.0
 20
0.0
 30
0.0
 70
128
 71
171
 72
70
 73
71
  0
VERTEX
  8
0
 10
0.0
 20
0.0
 30
0.0
 70
128
 71
14
 72
170
 73
171
  0
VERTEX
  8
0
 10
0.0
 20
0.0
 30
0.0
 70
128
 71
172
 72
171
 73
71
  0
VERTEX
  8
0
 10
0.0
 20
0.0
 30
0.0
 70
128
 71
172
 72
71
 73
72
  0
VERTEX
  8
0
 10
0.0
 20
0.0
 30
0.0
 70
128
 71
14
 72
171
 73
172
  0
VERTEX
  8
0
 10
0.0
 20
0.0
 30
0.0
 70
128
 71
173
 72
172
 73
72
  0
VERTEX
  8
0
 10
0.0
 20
0.0
 30
0.0
 70
128
 71
173
 72
72
 73
73
  0
VERTEX
  8
0
 10
0.0
 20
0.0
 30
0.0
 70
128
 71
14
 72
172
 73
173
  0
VERTEX
  8
0
 10
0.0
 20
0.0
 30
0.0
 70
128
 71
174
 72
173
 73
73
  0
VERTEX
  8
0
 10
0.0
 20
0.0
 30
0.0
 70
128
 71
174
 72
73
 73
74
  0
VERTEX
  8
0
 10
0.0
 20
0.0
 30
0.0
 70
128
 71
14
 72
173
 73
174
  0
VERTEX
  8
0
 10
0.0
 20
0.0
 30
0.0
 70
128
 71
175
 72
174
 73
74
  0
VERTEX
  8
0
 10
0.0
 20
0.0
 30
0.0
 70
128
 71
175
 72
74
 73
75
  0
VERTEX
  8
0
 10
0.0
 20
0.0
 30
0.0
 70
128
 71
14
 72
174
 73
175
  0
VERTEX
  8
0
 10
0.0
 20
0.0
 30
0.0
 70
128
 71
176
 72
175
 73
75
  0
VERTEX
  8
0
 10
0.0
 20
0.0
 30
0.0
 70
128
 71
176
 72
75
 73
76
  0
VERTEX
  8
0
 10
0.0
 20
0.0
 30
0.0
 70
128
 71
14
 72
175
 73
176
  0
VERTEX
  8
0
 10
0.0
 20
0.0
 30
0.0
 70
128
 71
177
 72
176
 73
76
  0
VERTEX
  8
0
 10
0.0
 20
0.0
 30
0.0
 70
128
 71
177
 72
76
 73
77
  0
VERTEX
  8
0
 10
0.0
 20
0.0
 30
0.0
 70
128
 71
14
 72
176
 73
177
  0
VERTEX
  8
0
 10
0.0
 20
0.0
 30
0.0
 70
128
 71
178
 72
177
 73
77
  0
VERTEX
  8
0
 10
0.0
 20
0.0
 30
0.0
 70
128
 71
178
 72
77
 73
78
  0
VERTEX
  8
0
 10
0.0
 20
0.0
 30
0.0
 70
128
 71
14
 72
177
 73
178
  0
VERTEX
  8
0
 10
0.0
 20
0.0
 30
0.0
 70
128
 71
179
 72
178
 73
78
  0
VERTEX
  8
0
 10
0.0
 20
0.0
 30
0.0
 70
128
 71
179
 72
78
 73
79
  0
VERTEX
  8
0
 10
0.0
 20
0.0
 30
0.0
 70
128
 71
14
 72
178
 73
179
  0
VERTEX
  8
0
 10
0.0
 20
0.0
 30
0.0
 70
128
 71
180
 72
179
 73
79
  0
VERTEX
  8
0
 10
0.0
 20
0.0
 30
0.0
 70
128
 71
180
 72
79
 73
80
  0
VERTEX
  8
0
 10
0.0
 20
0.0
 30
0.0
 70
128
 71
14
 72
179
 73
180
  0
VERTEX
  8
0
 10
0.0
 20
0.0
 30
0.0
 70
128
 71
181
 72
180
 73
80
  0
VERTEX
  8
0
 10
0.0
 20
0.0
 30
0.0
 70
128
 71
181
 72
80
 73
81
  0
VERTEX
  8
0
 10
0.0
 20
0.0
 30
0.0
 70
128
 71
14
 72
180
 73
181
  0
VERTEX
  8
0
 10
0.0
 20
0.0
 30
0.0
 70
128
 71
182
 72
181
 73
81
  0
VERTEX
  8
0
 10
0.0
 20
0.0
 30
0.0
 70
128
 71
182
 72
81
 73
82
  0
VERTEX
  8
0
 10
0.0
 20
0.0
 30
0.0
 70
128
 71
14
 72
181
 73
182
  0
VERTEX
  8
0
 10
0.0
 20
0.0
 30
0.0
 70
128
 71
183
 72
182
 73
82
  0
VERTEX
  8
0
 10
0.0
 20
0.0
 30
0.0
 70
128
 71
183
 72
82
 73
83
  0
VERTEX
  8
0
 10
0.0
 20
0.0
 30
0.0
 70
128
 71
14
 72
182
 73
183
  0
VERTEX
  8
0
 10
0.0
 20
0.0
 30
0.0
 70
128
 71
184
 72
183
 73
83
  0
VERTEX
  8
0
 10
0.0
 20
0.0
 30
0.0
 70
128
 71
184
 72
83
 73
84
  0
VERTEX
  8
0
 10
0.0
 20
0.0
 30
0.0
 70
128
 71
14
 72
183
 73
184
  0
VERTEX
  8
0
 10
0.0
 20
0.0
 30
0.0
 70
128
 71
185
 72
184
 73
84
  0
VERTEX
  8
0
 10
0.0
 20
0.0
 30
0.0
 70
128
 71
185
 72
84
 73
85
  0
VERTEX
  8
0
 10
0.0
 20
0.0
 30
0.0
 70
128
 71
14
 72
184
 73
185
  0
VERTEX
  8
0
 10
0.0
 20
0.0
 30
0.0
 70
128
 71
186
 72
185
 73
85
  0
VERTEX
  8
0
 10
0.0
 20
0.0
 30
0.0
 70
128
 71
186
 72
85
 73
86
  0
VERTEX
  8
0
 10
0.0
 20
0.0
 30
0.0
 70
128
 71
14
 72
185
 73
186
  0
VERTEX
  8
0
 10
0.0
 20
0.0
 30
0.0
 70
128
 71
187
 72
186
 73
86
  0
VERTEX
  8
0
 10
0.0
 20
0.0
 30
0.0
 70
128
 71
187
 72
86
 73
87
  0
VERTEX
  8
0
 10
0.0
 20
0.0
 30
0.0
 70
128
 71
14
 72
186
 73
187
  0
VERTEX
  8
0
 10
0.0
 20
0.0
 30
0.0
 70
128
 71
188
 72
187
 73
87
  0
VERTEX
  8
0
 10
0.0
 20
0.0
 30
0.0
 70
128
 71
188
 72
87
 73
88
  0
VERTEX
  8
0
 10
0.0
 20
0.0
 30
0.0
 70
128
 71
14
 72
187
 73
188
  0
VERTEX
  8
0
 10
0.0
 20
0.0
 30
0.0
 70
128
 71
189
 72
188
 73
88
  0
VERTEX
  8
0
 10
0.0
 20
0.0
 30
0.0
 70
128
 71
189
 72
88
 73
89
  0
VERTEX
  8
0
 10
0.0
 20
0.0
 30
0.0
 70
128
 71
14
 72
188
 73
189
  0
VERTEX
  8
0
 10
0.0
 20
0.0
 30
0.0
 70
128
 71
190
 72
189
 73
89
  0
VERTEX
  8
0
 10
0.0
 20
0.0
 30
0.0
 70
128
 71
190
 72
89
 73
90
  0
VERTEX
  8
0
 10
0.0
 20
0.0
 30
0.0
 70
128
 71
14
 72
189
 73
190
  0
VERTEX
  8
0
 10
0.0
 20
0.0
 30
0.0
 70
128
 71
191
 72
190
 73
90
  0
VERTEX
  8
0
 10
0.0
 20
0.0
 30
0.0
 70
128
 71
191
 72
90
 73
91
  0
VERTEX
  8
0
 10
0.0
 20
0.0
 30
0.0
 70
128
 71
14
 72
190
 73
191
  0
VERTEX
  8
0
 10
0.0
 20
0.0
 30
0.0
 70
128
 71
192
 72
191
 73
91
  0
VERTEX
  8
0
 10
0.0
 20
0.0
 30
0.0
 70
128
 71
192
 72
91
 73
92
  0
VERTEX
  8
0
 10
0.0
 20
0.0
 30
0.0
 70
128
 71
14
 72
191
 73
192
  0
VERTEX
  8
0
 10
0.0
 20
0.0
 30
0.0
 70
128
 71
193
 72
192
 73
92
  0
VERTEX
  8
0
 10
0.0
 20
0.0
 30
0.0
 70
128
 71
193
 72
92
 73
93
  0
VERTEX
  8
0
 10
0.0
 20
0.0
 30
0.0
 70
128
 71
14
 72
192
 73
15
  0
VERTEX
  8
0
 10
0.0
 20
0.0
 30
0.0
 70
128
 71
15
 72
192
 73
193
  0
VERTEX
  8
0
 10
0.0
 20
0.0
 30
0.0
 70
128
 71
194
 72
193
 73
93
  0
VERTEX
  8
0
 10
0.0
 20
0.0
 30
0.0
 70
128
 71
194
 72
93
 73
94
  0
VERTEX
  8
0
 10
0.0
 20
0.0
 30
0.0
 70
128
 71
15
 72
193
 73
194
  0
VERTEX
  8
0
 10
0.0
 20
0.0
 30
0.0
 70
128
 71
195
 72
194
 73
94
  0
VERTEX
  8
0
 10
0.0
 20
0.0
 30
0.0
 70
128
 71
195
 72
94
 73
95
  0
VERTEX
  8
0
 10
0.0
 20
0.0
 30
0.0
 70
128
 71
15
 72
194
 73
195
  0
VERTEX
  8
0
 10
0.0
 20
0.0
 30
0.0
 70
128
 71
196
 72
195
 73
95
  0
VERTEX
  8
0
 10
0.0
 20
0.0
 30
0.0
 70
128
 71
196
 72
95
 73
96
  0
VERTEX
  8
0
 10
0.0
 20
0.0
 30
0.0
 70
128
 71
15
 72
195
 73
196
  0
VERTEX
  8
0
 10
0.0
 20
0.0
 30
0.0
 70
128
 71
197
 72
196
 73
96
  0
VERTEX
  8
0
 10
0.0
 20
0.0
 30
0.0
 70
128
 71
197
 72
96
 73
97
  0
VERTEX
  8
0
 10
0.0
 20
0.0
 30
0.0
 70
128
 71
15
 72
196
 73
197
  0
VERTEX
  8
0
 10
0.0
 20
0.0
 30
0.0
 70
128
 71
198
 72
197
 73
97
  0
VERTEX
  8
0
 10
0.0
 20
0.0
 30
0.0
 70
128
 71
198
 72
97
 73
98
  0
VERTEX
  8
0
 10
0.0
 20
0.0
 30
0.0
 70
128
 71
15
 72
197
 73
198
  0
VERTEX
  8
0
 10
0.0
 20
0.0
 30
0.0
 70
128
 71
199
 72
198
 73
98
  0
VERTEX
  8
0
 10
0.0
 20
0.0
 30
0.0
 70
128
 71
199
 72
98
 73
99
  0
VERTEX
  8
0
 10
0.0
 20
0.0
 30
0.0
 70
128
 71
15
 72
198
 73
199
  0
VERTEX
  8
0
 10
0.0
 20
0.0
 30
0.0
 70
128
 71
200
 72
199
 73
99
  0
VERTEX
  8
0
 10
0.0
 20
0.0
 30
0.0
 70
128
 71
200
 72
99
 73
100
  0
VERTEX
  8
0
 10
0.0
 20
0.0
 30
0.0
 70
128
 71
15
 72
199
 73
200
  0
VERTEX
  8
0
 10
0.0
 20
0.0
 30
0.0
 70
128
 71
201
 72
200
 73
100
  0
VERTEX
  8
0
 10
0.0
 20
0.0
 30
0.0
 70
128
 71
201
 72
100
 73
101
  0
VERTEX
  8
0
 10
0.0
 20
0.0
 30
0.0
 70
128
 71
15
 72
200
 73
201
  0
VERTEX
  8
0
 10
0.0
 20
0.0
 30
0.0
 70
128
 71
202
 72
201
 73
101
  0
VERTEX
  8
0
 10
0.0
 20
0.0
 30
0.0
 70
128
 71
202
 72
101
 73
102
  0
VERTEX
  8
0
 10
0.0
 20
0.0
 30
0.0
 70
128
 71
15
 72
201
 73
202
  0
VERTEX
  8
0
 10
0.0
 20
0.0
 30
0.0
 70
128
 71
203
 72
202
 73
102
  0
VERTEX
  8
0
 10
0.0
 20
0.0
 30
0.0
 70
128
 71
203
 72
102
 73
103
  0
VERTEX
  8
0
 10
0.0
 20
0.0
 30
0.0
 70
128
 71
15
 72
202
 73
203
  0
VERTEX
  8
0
 10
0.0
 20
0.0
 30
0.0
 70
128
 71
204
 72
203
 73
103
  0
VERTEX
  8
0
 10
0.0
 20
0.0
 30
0.0
 70
128
 71
204
 72
103
 73
104
  0
VERTEX
  8
0
 10
0.0
 20
0.0
 30
0.0
 70
128
 71
15
 72
203
 73
204
  0
VERTEX
  8
0
 10
0.0
 20
0.0
 30
0.0
 70
128
 71
205
 72
204
 73
104
  0
VERTEX
  8
0
 10
0.0
 20
0.0
 30
0.0
 70
128
 71
205
 72
104
 73
105
  0
VERTEX
  8
0
 10
0.0
 20
0.0
 30
0.0
 70
128
 71
15
 72
204
 73
205
  0
VERTEX
  8
0
 10
0.0
 20
0.0
 30
0.0
 70
128
 71
206
 72
205
 73
105
  0
VERTEX
  8
0
 10
0.0
 20
0.0
 30
0.0
 70
128
 71
206
 72
105
 73
106
  0
VERTEX
  8
0
 10
0.0
 20
0.0
 30
0.0
 70
128
 71
15
 72
205
 73
206
  0
VERTEX
  8
0
 10
0.0
 20
0.0
 30
0.0
 70
128
 71
207
 72
206
 73
106
  0
VERTEX
  8
0
 10
0.0
 20
0.0
 30
0.0
 70
128
 71
207
 72
106
 73
107
  0
VERTEX
  8
0
 10
0.0
 20
0.0
 30
0.0
 70
128
 71
15
 72
206
 73
207
  0
VERTEX
  8
0
 10
0.0
 20
0.0
 30
0.0
 70
128
 71
208
 72
207
 73
107
  0
VERTEX
  8
0
 10
0.0
 20
0.0
 30
0.0
 70
128
 71
208
 72
107
 73
108
  0
VERTEX
  8
0
 10
0.0
 20
0.0
 30
0.0
 70
128
 71
15
 72
207
 73
208
  0
VERTEX
  8
0
 10
0.0
 20
0.0
 30
0.0
 70
128
 71
209
 72
208
 73
108
  0
VERTEX
  8
0
 10
0.0
 20
0.0
 30
0.0
 70
128
 71
209
 72
108
 73
109
  0
VERTEX
  8
0
 10
0.0
 20
0.0
 30
0.0
 70
128
 71
15
 72
208
 73
209
  0
VERTEX
  8
0
 10
0.0
 20
0.0
 30
0.0
 70
128
 71
210
 72
209
 73
109
  0
VERTEX
  8
0
 10
0.0
 20
0.0
 30
0.0
 70
128
 71
210
 72
109
 73
110
  0
VERTEX
  8
0
 10
0.0
 20
0.0
 30
0.0
 70
128
 71
15
 72
209
 73
210
  0
VERTEX
  8
0
 10
0.0
 20
0.0
 30
0.0
 70
128
 71
211
 72
210
 73
110
  0
VERTEX
  8
0
 10
0.0
 20
0.0
 30
0.0
 70
128
 71
211
 72
110
 73
111
  0
VERTEX
  8
0
 10
0.0
 20
0.0
 30
0.0
 70
128
 71
15
 72
210
 73
211
  0
VERTEX
  8
0
 10
0.0
 20
0.0
 30
0.0
 70
128
 71
212
 72
211
 73
111
  0
VERTEX
  8
0
 10
0.0
 20
0.0
 30
0.0
 70
128
 71
212
 72
111
 73
112
  0
VERTEX
  8
0
 10
0.0
 20
0.0
 30
0.0
 70
128
 71
15
 72
211
 73
212
  0
VERTEX
  8
0
 10
0.0
 20
0.0
 30
0.0
 70
128
 71
213
 72
212
 73
112
  0
VERTEX
  8
0
 10
0.0
 20
0.0
 30
0.0
 70
128
 71
213
 72
112
 73
113
  0
VERTEX
  8
0
 10
0.0
 20
0.0
 30
0.0
 70
128
 71
15
 72
212
 73
213
  0
VERTEX
  8
0
 10
0.0
 20
0.0
 30
0.0
 70
128
 71
214
 72
213
 73
113
  0
VERTEX
  8
0
 10
0.0
 20
0.0
 30
0.0
 70
128
 71
214
 72
113
 73
114
  0
VERTEX
  8
0
 10
0.0
 20
0.0
 30
0.0
 70
128
 71
15
 72
213
 73
214
  0
VERTEX
  8
0
 10
0.0
 20
0.0
 30
0.0
 70
128
 71
215
 72
214
 73
114
  0
VERTEX
  8
0
 10
0.0
 20
0.0
 30
0.0
 70
128
 71
215
 72
114
 73
115
  0
VERTEX
  8
0
 10
0.0
 20
0.0
 30
0.0
 70
128
 71
15
 72
214
 73
215
  0
VERTEX
  8
0
 10
0.0
 20
0.0
 30
0.0
 70
128
 71
216
 72
215
 73
115
  0
VERTEX
  8
0
 10
0.0
 20
0.0
 30
0.0
 70
128
 71
216
 72
115
 73
116
  0
VERTEX
  8
0
 10
0.0
 20
0.0
 30
0.0
 70
128
 71
15
 72
215
 73
216
  0
VERTEX
  8
0
 10
0.0
 20
0.0
 30
0.0
 70
128
 71
12
 72
217
 73
16
  0
VERTEX
  8
0
 10
0.0
 20
0.0
 30
0.0
 70
128
 71
15
 72
217
 73
11
  0
VERTEX
  8
0
 10
0.0
 20
0.0
 30
0.0
 70
128
 71
16
 72
217
 73
15
  0
SEQEND
  8
0
  0
ENDSEC
  0
SECTION
  2
OBJECTS
  0
ENDSEC
  0
EOF
